<svg width="3454" height="661" xmlns="http://www.w3.org/2000/svg" xmlns:xlink="http://www.w3.org/1999/xlink" xml:space="preserve" overflow="hidden"><defs><clipPath id="clip0"><rect x="947" y="164" width="3454" height="661"/></clipPath></defs><g clip-path="url(#clip0)" transform="translate(-947 -164)"><path d="M1031 585C1031 571.745 1041.52 561 1054.5 561 1067.48 561 1078 571.745 1078 585 1078 598.255 1067.48 609 1054.5 609 1041.52 609 1031 598.255 1031 585Z" fill="#FFFFFF" fill-rule="evenodd"/><path d="M1902 786C1902 772.745 1912.75 762 1926 762 1939.25 762 1950 772.745 1950 786 1950 799.255 1939.25 810 1926 810 1912.75 810 1902 799.255 1902 786Z" fill="#FFFFFF" fill-rule="evenodd"/><path d="M1365 313.5C1365 306.044 1370.82 300 1378 300 1385.18 300 1391 306.044 1391 313.5 1391 320.956 1385.18 327 1378 327 1370.82 327 1365 320.956 1365 313.5Z" fill="#FFFFFF" fill-rule="evenodd"/><path d="M1658 375C1658 367.82 1664.04 362 1671.5 362 1678.96 362 1685 367.82 1685 375 1685 382.18 1678.96 388 1671.5 388 1664.04 388 1658 382.18 1658 375Z" fill="#FFFFFF" fill-rule="evenodd"/><path d="M2237 528.5C2237 521.044 2243.04 515 2250.5 515 2257.96 515 2264 521.044 2264 528.5 2264 535.956 2257.96 542 2250.5 542 2243.04 542 2237 535.956 2237 528.5Z" fill="#FFFFFF" fill-rule="evenodd"/><path d="M2431 655.5C2431 648.044 2437.04 642 2444.5 642 2451.96 642 2458 648.044 2458 655.5 2458 662.956 2451.96 669 2444.5 669 2437.04 669 2431 662.956 2431 655.5Z" fill="#FFFFFF" fill-rule="evenodd"/><path d="M2935 393.5C2935 386.044 2940.82 380 2948 380 2955.18 380 2961 386.044 2961 393.5 2961 400.956 2955.18 407 2948 407 2940.82 407 2935 400.956 2935 393.5Z" fill="#FFFFFF" fill-rule="evenodd"/><path d="M0 0 296.15 248.238" stroke="#FFFFFF" stroke-width="2.29167" stroke-miterlimit="8" fill="none" fill-rule="evenodd" transform="matrix(1 0 0 -1 1071 568.238)"/><path d="M1391 313 1660.42 374.803" stroke="#FFFFFF" stroke-width="2.29167" stroke-miterlimit="8" fill="none" fill-rule="evenodd"/><path d="M0 0 322.648 247.945" stroke="#FFFFFF" stroke-width="2.29167" stroke-miterlimit="8" fill="none" fill-rule="evenodd" transform="matrix(1 0 0 -1 1918 785.945)"/><path d="M2248 535 2454.52 664.345" stroke="#FFFFFF" stroke-width="2.29167" stroke-miterlimit="8" fill="none" fill-rule="evenodd"/><path d="M0 0 501.171 259.918" stroke="#FFFFFF" stroke-width="2.29167" stroke-miterlimit="8" fill="none" fill-rule="evenodd" transform="matrix(1 0 0 -1 2447 652.918)"/><path d="M1065.5 585.5 1903.25 786.222" stroke="#FFFFFF" stroke-width="6.875" stroke-miterlimit="8" fill="none" fill-rule="evenodd"/><path d="M0 0 96.0977 190.232" stroke="#FFFFFF" stroke-width="2.29167" stroke-miterlimit="8" fill="none" fill-rule="evenodd" transform="matrix(-1 0 0 1 1048.1 596)"/><path d="M1063 600 1157.19 778.529" stroke="#FFFFFF" stroke-width="2.29167" stroke-miterlimit="8" fill="none" fill-rule="evenodd"/><path d="M0 0 365.144 93.2723" stroke="#FFFFFF" stroke-width="2.29167" stroke-miterlimit="8" fill="none" fill-rule="evenodd" transform="matrix(-1 0 0 1 1365.14 313)"/><path d="M1381 322 1455.51 802.716" stroke="#FFFFFF" stroke-width="2.29167" stroke-miterlimit="8" fill="none" fill-rule="evenodd"/><path d="M0 0 214.603 442.806" stroke="#FFFFFF" stroke-width="2.29167" stroke-miterlimit="8" fill="none" fill-rule="evenodd" transform="matrix(-1 0 0 1 1676.6 360)"/><path d="M1801 486.5C1801 479.044 1807.04 473 1814.5 473 1821.96 473 1828 479.044 1828 486.5 1828 493.956 1821.96 500 1814.5 500 1807.04 500 1801 493.956 1801 486.5Z" fill="#FFFFFF" fill-rule="evenodd"/><path d="M1664 368 1810.39 487.215" stroke="#FFFFFF" stroke-width="2.29167" stroke-miterlimit="8" fill="none" fill-rule="evenodd"/><path d="M1810 484 1908.93 768.945" stroke="#FFFFFF" stroke-width="2.29167" stroke-miterlimit="8" fill="none" fill-rule="evenodd"/><path d="M1449 811.5C1449 804.044 1455.04 798 1462.5 798 1469.96 798 1476 804.044 1476 811.5 1476 818.956 1469.96 825 1462.5 825 1455.04 825 1449 818.956 1449 811.5Z" fill="#FFFFFF" fill-rule="evenodd"/><path d="M1532 179 1667.75 370.299" stroke="#FFFFFF" stroke-width="2.29167" stroke-miterlimit="8" fill="none" fill-rule="evenodd"/><path d="M0 0 153.565 121.272" stroke="#FFFFFF" stroke-width="2.29167" stroke-miterlimit="8" fill="none" fill-rule="evenodd" transform="matrix(1 0 0 -1 1378 300.272)"/><path d="M993 410.5C993 403.044 998.82 397 1006 397 1013.18 397 1019 403.044 1019 410.5 1019 417.956 1013.18 424 1006 424 998.82 424 993 417.956 993 410.5Z" fill="#FFFFFF" fill-rule="evenodd"/><path d="M2100 403 2246.39 522.215" stroke="#FFFFFF" stroke-width="2.29167" stroke-miterlimit="8" fill="none" fill-rule="evenodd"/><path d="M2369 487 2447.24 649.137" stroke="#FFFFFF" stroke-width="2.29167" stroke-miterlimit="8" fill="none" fill-rule="evenodd"/><path d="M0 0 117.69 22.9167" stroke="#FFFFFF" stroke-width="2.29167" stroke-miterlimit="8" fill="none" fill-rule="evenodd" transform="matrix(1 0 0 -1 2250 522.917)"/><path d="M0 0 289.723 60.1788" stroke="#FFFFFF" stroke-width="2.29167" stroke-miterlimit="8" fill="none" fill-rule="evenodd" transform="matrix(1 0 0 -1 1812 485.179)"/><path d="M2356 496.5C2356 489.044 2361.82 483 2369 483 2376.18 483 2382 489.044 2382 496.5 2382 503.956 2376.18 510 2369 510 2361.82 510 2356 503.956 2356 496.5Z" fill="#FFFFFF" fill-rule="evenodd"/><path d="M2098 415.5C2098 408.044 2103.82 402 2111 402 2118.18 402 2124 408.044 2124 415.5 2124 422.956 2118.18 429 2111 429 2103.82 429 2098 422.956 2098 415.5Z" fill="#FFFFFF" fill-rule="evenodd"/><path d="M3722 202 4068.58 594.821" stroke="#FFFFFF" stroke-width="2.29167" stroke-miterlimit="8" fill="none" fill-rule="evenodd"/><path d="M3708 202C3708 194.82 3713.82 189 3721 189 3728.18 189 3734 194.82 3734 202 3734 209.18 3728.18 215 3721 215 3713.82 215 3708 209.18 3708 202Z" fill="#FFFFFF" fill-rule="evenodd"/><path d="M4039 585C4039 571.745 4049.52 561 4062.5 561 4075.48 561 4086 571.745 4086 585 4086 598.255 4075.48 609 4062.5 609 4049.52 609 4039 598.255 4039 585Z" fill="#FFFFFF" fill-rule="evenodd"/><path d="M3962 215 4062.82 561.187" stroke="#FFFFFF" stroke-width="2.29167" stroke-miterlimit="8" fill="none" fill-rule="evenodd"/><path d="M0 0 311.094 127.354" stroke="#FFFFFF" stroke-width="2.29167" stroke-miterlimit="8" fill="none" fill-rule="evenodd" transform="matrix(1 0 0 -1 4079 568.354)"/><path d="M3948 214C3948 206.82 3953.82 201 3961 201 3968.18 201 3974 206.82 3974 214 3974 221.18 3968.18 227 3961 227 3953.82 227 3948 221.18 3948 214Z" fill="#FFFFFF" fill-rule="evenodd"/><path d="M4374 437C4374 429.82 4380.04 424 4387.5 424 4394.96 424 4401 429.82 4401 437 4401 444.18 4394.96 450 4387.5 450 4380.04 450 4374 444.18 4374 437Z" fill="#FFFFFF" fill-rule="evenodd"/><path d="M2961.5 393.5 4038.55 585.433" stroke="#FFFFFF" stroke-width="1.14583" stroke-miterlimit="8" fill="none" fill-rule="evenodd"/><path d="M1520 177.5C1520 170.044 1526.04 164 1533.5 164 1540.96 164 1547 170.044 1547 177.5 1547 184.956 1540.96 191 1533.5 191 1526.04 191 1520 184.956 1520 177.5Z" fill="#FFFFFF" fill-rule="evenodd"/><path d="M947 776C947 768.82 953.044 763 960.5 763 967.956 763 974 768.82 974 776 974 783.18 967.956 789 960.5 789 953.044 789 947 783.18 947 776Z" fill="#FFFFFF" fill-rule="evenodd"/><path d="M1145 782.5C1145 775.044 1150.82 769 1158 769 1165.18 769 1171 775.044 1171 782.5 1171 789.956 1165.18 796 1158 796 1150.82 796 1145 789.956 1145 782.5Z" fill="#FFFFFF" fill-rule="evenodd"/></g></svg>